<?xml version="1.0" encoding="utf-8"?>
<!-- Generator: Adobe Illustrator 22.1.0, SVG Export Plug-In . SVG Version: 6.00 Build 0)  -->
<svg version="1.1" id="Layer_1" xmlns="http://www.w3.org/2000/svg" xmlns:xlink="http://www.w3.org/1999/xlink" x="0px" y="0px"
	 viewBox="0 0 332 286" style="enable-background:new 0 0 332 286;" xml:space="preserve">
<style type="text/css">
	.st0{fill:none;stroke:#5B5B59;stroke-width:3;stroke-miterlimit:10;}
</style>
<g>
	<path class="st0" d="M244.1,159.6c0,0,12.8,3.2,18.5-7.8c5.7-11,1.2-19.4-5-25.6c-6.2-6.2-71.3-71.7-77.9-77.9
		c-6.6-6.2-18.1-8.2-29.5,3.7s-74.5,74.7-80.7,81.1S67.3,164,88.6,160c0,0-0.2,55.4-0.2,62.6c0,7.2,4.7,19.4,24.5,19.8
		c19.8,0.4,26.4,0.1,29.3,0.1c4.3-0.1,5.2-2.2,5.4-10.8c0.2-8.7,0-39-0.4-43.5s3.1-9.3,17.7-8.9c14.6,0.4,19.8-1,20.8,10.1
		c1,11.1-0.6,39.6-0.6,44.4c0,4.9,1.5,7.8,7.2,8.1c5.7,0.3,30.2,0.1,35.6,0.1c5.4,0,17-7.2,17-18.3S244.1,159.6,244.1,159.6z"/>
</g>
</svg>
