<?xml version="1.0" encoding="utf-8"?>
<!-- Generator: Adobe Illustrator 22.1.0, SVG Export Plug-In . SVG Version: 6.00 Build 0)  -->
<svg version="1.1" id="Layer_1" xmlns="http://www.w3.org/2000/svg" xmlns:xlink="http://www.w3.org/1999/xlink" x="0px" y="0px"
	 viewBox="0 0 332 286" style="enable-background:new 0 0 332 286;" xml:space="preserve">
<style type="text/css">
	.st0{fill:none;stroke:#5B5B59;stroke-width:3;stroke-miterlimit:10;}
</style>
<g>
	<path class="st0" d="M153,24c0,0,47.1,1,56.5,45.2c0,0,8.4,42.3-19.5,81.7s-57.2,23.6-62.7,19.9c-5.5-3.6-34.8-29.6-37.7-66.6
		S102.8,24.7,153,24z"/>
	<path class="st0" d="M223.5,68.2c0,0,37.9-2.6,50,24c9.9,21.8,8.5,52.6-16.7,83.8c-22.9,28.5-54.2,8.5-62.5-3.1"/>
	<polygon class="st0" points="208.3,219.3 228,190.9 244.6,219.3 	"/>
	<polygon class="st0" points="150.7,177.2 131.9,209.1 168.8,209.1 	"/>
	<path class="st0" d="M164.1,262c0,0,1.7-19.5-4.3-30.5s-8.2-22.5-8.2-22.5"/>
	<path class="st0" d="M212.2,260c0,0-1.7-18.4,6-25.3c7.7-6.9,8.3-15.3,8.3-15.3"/>
	<polygon class="st0" points="120.2,220.1 100.5,191.6 83.9,220.1 	"/>
	<path class="st0" d="M116.4,260.7c0,0,1.7-18.4-6-25.3s-8.3-15.3-8.3-15.3"/>
	<path class="st0" d="M125.9,184.8c0,0-42.5,26.9-65.6-27.9s14.4-81.2,14.4-81.2"/>
</g>
</svg>
